<svg id="Livello_1" data-name="Livello 1" xmlns="http://www.w3.org/2000/svg" viewBox="0 0 470.2418 471.7582">
  <path d="M0,250" transform="translate(-15.6374 -14.1208)" fill="#1d1d1b" stroke="#1d1d1b" stroke-miterlimit="10"/>
  <path d="M200.8309,14.1208H54.07A38.4328,38.4328,0,0,0,15.6374,52.5536V199.3145A38.4328,38.4328,0,0,0,54.07,237.7473H200.8309a38.4328,38.4328,0,0,0,38.4328-38.4328V52.5536A38.4328,38.4328,0,0,0,200.8309,14.1208Zm5.62,165.2332a25.5808,25.5808,0,0,1-25.5808,25.5808H74.0306A25.5808,25.5808,0,0,1,48.45,179.354V72.5141A25.5808,25.5808,0,0,1,74.0306,46.9333h106.84a25.5808,25.5808,0,0,1,25.5808,25.5808ZM168.6594,64.67H86.2418a20.055,20.055,0,0,0-20.055,20.055v82.4175a20.055,20.055,0,0,0,20.055,20.055h82.4176a20.0549,20.0549,0,0,0,20.0549-20.055V84.7253A20.0549,20.0549,0,0,0,168.6594,64.67Z" transform="translate(-15.6374 -14.1208)" fill="#1d1d1b"/>
  <path d="M200.8309,262.2527H54.07a38.4328,38.4328,0,0,0-38.4328,38.4328V447.4463A38.4328,38.4328,0,0,0,54.07,485.8791H200.8309a38.4328,38.4328,0,0,0,38.4328-38.4328V300.6855A38.4328,38.4328,0,0,0,200.8309,262.2527Zm5.62,165.2332a25.5808,25.5808,0,0,1-25.5808,25.5808H74.0306A25.5808,25.5808,0,0,1,48.45,427.4859v-106.84a25.5808,25.5808,0,0,1,25.5808-25.5807h106.84a25.5808,25.5808,0,0,1,25.5808,25.5807ZM168.6594,312.8022H86.2418a20.0549,20.0549,0,0,0-20.055,20.0549v82.4176a20.055,20.055,0,0,0,20.055,20.055h82.4176a20.0549,20.0549,0,0,0,20.0549-20.055V332.8571A20.0549,20.0549,0,0,0,168.6594,312.8022Z" transform="translate(-15.6374 -14.1208)" fill="#1d1d1b"/>
  <path d="M447.4463,15.6373H300.6855A38.4329,38.4329,0,0,0,262.2527,54.07V200.8309a38.4328,38.4328,0,0,0,38.4328,38.4328H447.4463a38.4328,38.4328,0,0,0,38.4329-38.4328V54.07A38.4329,38.4329,0,0,0,447.4463,15.6373Zm5.62,165.2332a25.5808,25.5808,0,0,1-25.5808,25.5808h-106.84a25.5808,25.5808,0,0,1-25.5807-25.5808V74.0306A25.5808,25.5808,0,0,1,320.6459,48.45h106.84a25.5808,25.5808,0,0,1,25.5808,25.5808ZM415.2747,66.1868H332.8571a20.0549,20.0549,0,0,0-20.0549,20.055v82.4175a20.0549,20.0549,0,0,0,20.0549,20.055h82.4176a20.055,20.055,0,0,0,20.055-20.055V86.2418A20.055,20.055,0,0,0,415.2747,66.1868Z" transform="translate(-15.6374 -14.1208)" fill="#1d1d1b"/>
  <rect x="246.6154" y="252.8792" width="61.777" height="61.777" rx="12.8317" fill="#1d1d1b" stroke="#1d1d1b" stroke-miterlimit="10"/>
  <rect x="246.6154" y="405.2341" width="61.777" height="61.777" rx="12.8317" fill="#1d1d1b" stroke="#1d1d1b" stroke-miterlimit="10"/>
  <rect x="320.1068" y="330.0071" width="61.777" height="61.777" rx="12.8317" fill="#1d1d1b" stroke="#1d1d1b" stroke-miterlimit="10"/>
  <rect x="320.8676" y="252.8792" width="134.7327" height="61.777" rx="11.1386" fill="#1d1d1b" stroke="#1d1d1b" stroke-miterlimit="10"/>
  <path d="M460.021,481.6239H384.1769A11.2167,11.2167,0,0,1,372.96,470.4073V430.5715a11.2166,11.2166,0,0,1,11.2166-11.2166h13.3008a11.2165,11.2165,0,0,0,11.2166-11.2166V354.394a11.2165,11.2165,0,0,1,11.2166-11.2165h40.11a11.2165,11.2165,0,0,1,11.2166,11.2165V470.4073A11.2166,11.2166,0,0,1,460.021,481.6239Z" transform="translate(-15.6374 -14.1208)" fill="#1d1d1b" stroke="#1d1d1b" stroke-miterlimit="10"/>
</svg>
