<svg id="Livello_1" data-name="Livello 1" xmlns="http://www.w3.org/2000/svg" viewBox="0 0 461 461">
  <g>
    <path d="M188.35,109.2844H146.3144a20.055,20.055,0,0,0-20.055,20.055v42.0351a20.0549,20.0549,0,0,0,20.055,20.0549H188.35a20.0549,20.0549,0,0,0,20.0549-20.0549V129.3394A20.0549,20.0549,0,0,0,188.35,109.2844ZM203.861,75.395H130.8029A38.4328,38.4328,0,0,0,92.37,113.8278V186.886a38.4328,38.4328,0,0,0,38.4329,38.4328H203.861a38.4327,38.4327,0,0,0,38.4328-38.4328V113.8278A38.4327,38.4327,0,0,0,203.861,75.395ZM220.2957,177.74a25.5808,25.5808,0,0,1-25.5808,25.5808h-54.766A25.5808,25.5808,0,0,1,114.3682,177.74v-54.766a25.5807,25.5807,0,0,1,25.5807-25.5808h54.766a25.5808,25.5808,0,0,1,25.5808,25.5808ZM203.861,279.56H130.8029A38.4329,38.4329,0,0,0,92.37,317.9928V391.051a38.4328,38.4328,0,0,0,38.4329,38.4328H203.861a38.4327,38.4327,0,0,0,38.4328-38.4328V317.9928A38.4328,38.4328,0,0,0,203.861,279.56Zm16.4347,102.3449a25.5808,25.5808,0,0,1-25.5808,25.5808h-54.766a25.5807,25.5807,0,0,1-25.5807-25.5808v-54.766a25.5806,25.5806,0,0,1,25.5807-25.5807h54.766a25.5807,25.5807,0,0,1,25.5808,25.5807ZM188.35,313.4494H146.3144a20.055,20.055,0,0,0-20.055,20.055V375.54a20.0549,20.0549,0,0,0,20.055,20.0549H188.35A20.0549,20.0549,0,0,0,208.4044,375.54V333.5044A20.0549,20.0549,0,0,0,188.35,313.4494ZM369.1971,76.4117H296.139a38.4327,38.4327,0,0,0-38.4328,38.4328v73.0581a38.4328,38.4328,0,0,0,38.4328,38.4329h73.0581A38.4329,38.4329,0,0,0,407.63,187.9026V114.8445A38.4328,38.4328,0,0,0,369.1971,76.4117Zm16.4347,102.3449a25.5806,25.5806,0,0,1-25.5807,25.5807h-54.766a25.5807,25.5807,0,0,1-25.5808-25.5807v-54.766A25.5808,25.5808,0,0,1,305.2851,98.41h54.766a25.5807,25.5807,0,0,1,25.5807,25.5808Zm-31.9462-68.4555H311.6505a20.0549,20.0549,0,0,0-20.0549,20.0549v42.0351a20.0549,20.0549,0,0,0,20.0549,20.055h42.0351a20.055,20.055,0,0,0,20.055-20.055V130.356A20.0549,20.0549,0,0,0,353.6856,110.3011ZM286.2911,282.7427H270.5378a12.8316,12.8316,0,0,0-12.8316,12.8316v15.7533a12.8316,12.8316,0,0,0,12.8316,12.8316h15.7533a12.8316,12.8316,0,0,0,12.8316-12.8316V295.5743A12.8316,12.8316,0,0,0,286.2911,282.7427Zm0,102.1419H270.5378a12.8316,12.8316,0,0,0-12.8316,12.8317V413.47a12.8316,12.8316,0,0,0,12.8316,12.8316h15.7533A12.8316,12.8316,0,0,0,299.1227,413.47V397.7163A12.8316,12.8316,0,0,0,286.2911,384.8846Zm62.1018-21.8488V347.2825a12.8316,12.8316,0,0,0-12.8316-12.8316H319.808a12.8316,12.8316,0,0,0-12.8316,12.8316v15.7533a12.8316,12.8316,0,0,0,12.8316,12.8316h15.7533A12.8316,12.8316,0,0,0,348.3929,363.0358Zm38.2825-80.2931h-68.05a11.1386,11.1386,0,0,0-11.1386,11.1386v19.1393a11.1386,11.1386,0,0,0,11.1386,11.1386h68.05a11.1386,11.1386,0,0,0,11.1386-11.1386V293.8813A11.1386,11.1386,0,0,0,386.6754,282.7427Zm3.6188,51.071H363.4035a7.52,7.52,0,0,0-7.52,7.52v36.0313a7.52,7.52,0,0,1-7.52,7.52h-8.9171a7.52,7.52,0,0,0-7.52,7.52v26.7068a7.52,7.52,0,0,0,7.52,7.52h50.8475a7.52,7.52,0,0,0,7.52-7.52V341.3334A7.52,7.52,0,0,0,390.2942,333.8137Z" transform="translate(-19.75 -19.75)" fill="#1d1d1b"/>
    <path d="M188.35,109.2844H146.3144a20.055,20.055,0,0,0-20.055,20.055v42.0351a20.0549,20.0549,0,0,0,20.055,20.0549H188.35a20.0549,20.0549,0,0,0,20.0549-20.0549V129.3394A20.0549,20.0549,0,0,0,188.35,109.2844ZM203.861,75.395H130.8029A38.4328,38.4328,0,0,0,92.37,113.8278V186.886a38.4328,38.4328,0,0,0,38.4329,38.4328H203.861a38.4327,38.4327,0,0,0,38.4328-38.4328V113.8278A38.4327,38.4327,0,0,0,203.861,75.395ZM220.2957,177.74a25.5808,25.5808,0,0,1-25.5808,25.5808h-54.766A25.5808,25.5808,0,0,1,114.3682,177.74v-54.766a25.5807,25.5807,0,0,1,25.5807-25.5808h54.766a25.5808,25.5808,0,0,1,25.5808,25.5808ZM203.861,279.56H130.8029A38.4329,38.4329,0,0,0,92.37,317.9928V391.051a38.4328,38.4328,0,0,0,38.4329,38.4328H203.861a38.4327,38.4327,0,0,0,38.4328-38.4328V317.9928A38.4328,38.4328,0,0,0,203.861,279.56Zm16.4347,102.3449a25.5808,25.5808,0,0,1-25.5808,25.5808h-54.766a25.5807,25.5807,0,0,1-25.5807-25.5808v-54.766a25.5806,25.5806,0,0,1,25.5807-25.5807h54.766a25.5807,25.5807,0,0,1,25.5808,25.5807ZM188.35,313.4494H146.3144a20.055,20.055,0,0,0-20.055,20.055V375.54a20.0549,20.0549,0,0,0,20.055,20.0549H188.35A20.0549,20.0549,0,0,0,208.4044,375.54V333.5044A20.0549,20.0549,0,0,0,188.35,313.4494ZM369.1971,76.4117H296.139a38.4327,38.4327,0,0,0-38.4328,38.4328v73.0581a38.4328,38.4328,0,0,0,38.4328,38.4329h73.0581A38.4329,38.4329,0,0,0,407.63,187.9026V114.8445A38.4328,38.4328,0,0,0,369.1971,76.4117Zm16.4347,102.3449a25.5806,25.5806,0,0,1-25.5807,25.5807h-54.766a25.5807,25.5807,0,0,1-25.5808-25.5807v-54.766A25.5808,25.5808,0,0,1,305.2851,98.41h54.766a25.5807,25.5807,0,0,1,25.5807,25.5808Zm-31.9462-68.4555H311.6505a20.0549,20.0549,0,0,0-20.0549,20.0549v42.0351a20.0549,20.0549,0,0,0,20.0549,20.055h42.0351a20.055,20.055,0,0,0,20.055-20.055V130.356A20.0549,20.0549,0,0,0,353.6856,110.3011ZM286.2911,282.7427H270.5378a12.8316,12.8316,0,0,0-12.8316,12.8316v15.7533a12.8316,12.8316,0,0,0,12.8316,12.8316h15.7533a12.8316,12.8316,0,0,0,12.8316-12.8316V295.5743A12.8316,12.8316,0,0,0,286.2911,282.7427Zm0,102.1419H270.5378a12.8316,12.8316,0,0,0-12.8316,12.8317V413.47a12.8316,12.8316,0,0,0,12.8316,12.8316h15.7533A12.8316,12.8316,0,0,0,299.1227,413.47V397.7163A12.8316,12.8316,0,0,0,286.2911,384.8846Zm62.1018-21.8488V347.2825a12.8316,12.8316,0,0,0-12.8316-12.8316H319.808a12.8316,12.8316,0,0,0-12.8316,12.8316v15.7533a12.8316,12.8316,0,0,0,12.8316,12.8316h15.7533A12.8316,12.8316,0,0,0,348.3929,363.0358Zm38.2825-80.2931h-68.05a11.1386,11.1386,0,0,0-11.1386,11.1386v19.1393a11.1386,11.1386,0,0,0,11.1386,11.1386h68.05a11.1386,11.1386,0,0,0,11.1386-11.1386V293.8813A11.1386,11.1386,0,0,0,386.6754,282.7427Zm3.6188,51.071H363.4035a7.52,7.52,0,0,0-7.52,7.52v36.0313a7.52,7.52,0,0,1-7.52,7.52h-8.9171a7.52,7.52,0,0,0-7.52,7.52v26.7068a7.52,7.52,0,0,0,7.52,7.52h50.8475a7.52,7.52,0,0,0,7.52-7.52V341.3334A7.52,7.52,0,0,0,390.2942,333.8137Z" transform="translate(-19.75 -19.75)" fill="none" stroke="#1d1d1b" stroke-miterlimit="10" stroke-width="0.6704"/>
  </g>
  <g>
    <path d="M30.25,183.5371a10,10,0,0,0,10-10V73.3491A33.1365,33.1365,0,0,1,73.3491,40.25h100.188a10,10,0,0,0,0-20H73.3491A53.1594,53.1594,0,0,0,20.25,73.3491v100.188A10,10,0,0,0,30.25,183.5371ZM427.1509,20.25H326.9629a10,10,0,0,0,0,20h100.188A33.1365,33.1365,0,0,1,460.25,73.3491v100.188a10,10,0,0,0,20,0V73.3491A53.1594,53.1594,0,0,0,427.1509,20.25ZM470.25,316.9629a10,10,0,0,0-10,10v100.188A33.1365,33.1365,0,0,1,427.1509,460.25H326.9629a10,10,0,0,0,0,20h100.188A53.1594,53.1594,0,0,0,480.25,427.1509V326.9629A10,10,0,0,0,470.25,316.9629ZM173.5371,460.25H73.3491A33.1365,33.1365,0,0,1,40.25,427.1509V326.9629a10,10,0,0,0-20,0v100.188A53.1594,53.1594,0,0,0,73.3491,480.25h100.188a10,10,0,0,0,0-20Zm-76.6435-210a5,5,0,0,0,5,5H398.6064a5,5,0,0,0,0-10H101.8936A5,5,0,0,0,96.8936,250.25Z" transform="translate(-19.75 -19.75)" fill="#1d1d1b"/>
    <path d="M30.25,183.5371a10,10,0,0,0,10-10V73.3491A33.1365,33.1365,0,0,1,73.3491,40.25h100.188a10,10,0,0,0,0-20H73.3491A53.1594,53.1594,0,0,0,20.25,73.3491v100.188A10,10,0,0,0,30.25,183.5371ZM427.1509,20.25H326.9629a10,10,0,0,0,0,20h100.188A33.1365,33.1365,0,0,1,460.25,73.3491v100.188a10,10,0,0,0,20,0V73.3491A53.1594,53.1594,0,0,0,427.1509,20.25ZM470.25,316.9629a10,10,0,0,0-10,10v100.188A33.1365,33.1365,0,0,1,427.1509,460.25H326.9629a10,10,0,0,0,0,20h100.188A53.1594,53.1594,0,0,0,480.25,427.1509V326.9629A10,10,0,0,0,470.25,316.9629ZM173.5371,460.25H73.3491A33.1365,33.1365,0,0,1,40.25,427.1509V326.9629a10,10,0,0,0-20,0v100.188A53.1594,53.1594,0,0,0,73.3491,480.25h100.188a10,10,0,0,0,0-20Zm-76.6435-210a5,5,0,0,0,5,5H398.6064a5,5,0,0,0,0-10H101.8936A5,5,0,0,0,96.8936,250.25Z" transform="translate(-19.75 -19.75)" fill="none" stroke="#1d1d1b" stroke-miterlimit="10"/>
  </g>
</svg>
