<svg id="Livello_1" data-name="Livello 1" xmlns="http://www.w3.org/2000/svg" viewBox="0 0 400.5453 415.6298">
  <path d="M211.0241,388.0552a25.5808,25.5808,0,0,1-25.5808,25.5808H108.9415a25.5808,25.5808,0,0,1-25.5808-25.5808V311.5533a25.5808,25.5808,0,0,1,25.5808-25.5807h72.3308a109.8311,109.8311,0,0,1,8.77-26.5121H95.2814a38.4328,38.4328,0,0,0-38.4328,38.4328v103.822a38.4328,38.4328,0,0,0,38.4328,38.4328H199.1033a38.4274,38.4274,0,0,0,38.3138-35.547,111.3672,111.3672,0,0,1-26.393-19.8762ZM398.3658,60.1981H294.5438A38.4328,38.4328,0,0,0,256.111,98.6309V201.7336a110.0572,110.0572,0,0,1,27.733-5.1247,25.554,25.554,0,0,1-1.2209-7.8161V112.291A25.5809,25.5809,0,0,1,308.2039,86.71h76.5018a25.5809,25.5809,0,0,1,25.5808,25.5809v76.5018a25.5808,25.5808,0,0,1-25.5808,25.5808H350.2951a111.6243,111.6243,0,0,1,28.2977,26.5121h19.773a38.4329,38.4329,0,0,0,38.4328-38.4329V98.6309A38.4328,38.4328,0,0,0,398.3658,60.1981Zm17.54,264.6486H399.2514a109.7584,109.7584,0,0,1-8.0324,27.01l33.7494,33.7494V333.91A9.0629,9.0629,0,0,0,415.9056,324.8467Zm-2.0758-61.55h-22.227a110.0888,110.0888,0,0,1,9.0678,43.862q0,3.0466-.1675,6.053H413.83a11.1386,11.1386,0,0,0,11.1386-11.1386V274.4349A11.1385,11.1385,0,0,0,413.83,263.2963ZM176.6379,300.3039h-58.891A20.0549,20.0549,0,0,0,97.692,320.3588V379.25a20.0549,20.0549,0,0,0,20.0549,20.0549h58.891A20.0549,20.0549,0,0,0,196.6928,379.25V366.785A110.07,110.07,0,0,1,179.23,307.1583c0-2.2289.074-4.44.2046-6.6369A20.1025,20.1025,0,0,0,176.6379,300.3039ZM345.5615,427.647a9.0629,9.0629,0,0,0,9.0629,9.0629h8.3072l-17.37-17.37Zm50.3937-247.66v-58.891A20.0549,20.0549,0,0,0,375.9,101.0415h-58.891a20.0549,20.0549,0,0,0-20.0549,20.0549v58.891a20.0362,20.0362,0,0,0,11.1422,17.9459q5.0322.8332,9.9067,2.109H375.9A20.0549,20.0549,0,0,0,395.9552,179.9874ZM199.1033,58.9728H95.2814A38.4327,38.4327,0,0,0,56.8486,97.4056V201.2275A38.4327,38.4327,0,0,0,95.2814,239.66H199.1033c1.0984,0,2.1828-.057,3.2577-.1473a111.5253,111.5253,0,0,1,34.101-29.2687,38.5084,38.5084,0,0,0,1.0742-9.0168V97.4056A38.4328,38.4328,0,0,0,199.1033,58.9728Zm11.9208,128.5947a25.5808,25.5808,0,0,1-25.5808,25.5808H108.9415a25.5808,25.5808,0,0,1-25.5808-25.5808V111.0657a25.5807,25.5807,0,0,1,25.5808-25.5808h76.5018a25.5807,25.5807,0,0,1,25.5808,25.5808ZM256.111,412.5834v10.8973a12.8318,12.8318,0,0,0,12.8317,12.8317h24.2517a12.8317,12.8317,0,0,0,12.8317-12.8317v-6.7726a110.8215,110.8215,0,0,1-49.9151-4.1247ZM176.6379,99.8162h-58.891A20.0549,20.0549,0,0,0,97.692,119.8711V178.762a20.0549,20.0549,0,0,0,20.0549,20.055h58.891a20.0549,20.0549,0,0,0,20.0549-20.055V119.8711A20.0549,20.0549,0,0,0,176.6379,99.8162Z" transform="translate(-56.8486 -58.9728)" fill="#1d1d1b"/>
  <path d="M451.5368,440.46l-83.2949-83.2949a20.1792,20.1792,0,0,0-1.6422-1.4635,90.7006,90.7006,0,1,0-28.1064,28.1064,20.1958,20.1958,0,0,0,1.4634,1.6423l83.2949,83.2949A20.0007,20.0007,0,0,0,451.5368,440.46ZM222.4521,307.1586A67.4983,67.4983,0,1,1,289.95,374.6569,67.4983,67.4983,0,0,1,222.4521,307.1586Z" transform="translate(-56.8486 -58.9728)" fill="#1d1d1b"/>
</svg>
