<svg id="Livello_1" data-name="Livello 1" xmlns="http://www.w3.org/2000/svg" viewBox="0 0 460 460">
  <path d="M30,183.2871a10,10,0,0,1-10-10V73.0991A53.1594,53.1594,0,0,1,73.0991,20h100.188a10,10,0,0,1,0,20H73.0991A33.1365,33.1365,0,0,0,40,73.0991v100.188A10,10,0,0,1,30,183.2871Z" transform="translate(-20 -20)" fill="#f6f6f6" opacity="0.7"/>
  <path d="M470,183.2871a10,10,0,0,0,10-10V73.0991A53.1594,53.1594,0,0,0,426.9009,20H326.7129a10,10,0,0,0,0,20h100.188A33.1365,33.1365,0,0,1,460,73.0991v100.188A10,10,0,0,0,470,183.2871Z" transform="translate(-20 -20)" fill="#f6f6f6" opacity="0.7"/>
  <path d="M470,316.7129a10,10,0,0,1,10,10v100.188A53.1594,53.1594,0,0,1,426.9009,480H326.7129a10,10,0,0,1,0-20h100.188A33.1365,33.1365,0,0,0,460,426.9009V326.7129A10,10,0,0,1,470,316.7129Z" transform="translate(-20 -20)" fill="#f6f6f6" opacity="0.7"/>
  <path d="M30,316.7129a10,10,0,0,0-10,10v100.188A53.1594,53.1594,0,0,0,73.0991,480h100.188a10,10,0,0,0,0-20H73.0991A33.1365,33.1365,0,0,1,40,426.9009V326.7129A10,10,0,0,0,30,316.7129Z" transform="translate(-20 -20)" fill="#f6f6f6" opacity="0.7"/>
  <path d="M398.3564,255H101.6436a5,5,0,1,1,0-10H398.3564a5,5,0,0,1,0,10Z" transform="translate(-20 -20)" fill="#f6f6f6" opacity="0.7"/>
  <path d="M398.3564,250" transform="translate(-20 -20)" fill="none" stroke="#1d1d1b" stroke-miterlimit="10"/>
  <path d="M101.6436,250" transform="translate(-20 -20)" fill="none" stroke="#1d1d1b" stroke-miterlimit="10"/>
</svg>
